<?xml version="1.0" standalone="no"?>
<!DOCTYPE svg PUBLIC "-//W3C//DTD SVG 20010904//EN"
 "http://www.w3.org/TR/2001/REC-SVG-20010904/DTD/svg10.dtd">
<svg version="1.0" xmlns="http://www.w3.org/2000/svg"
 width="512.000000pt" height="512.000000pt" viewBox="0 0 512.000000 470.000000"
 preserveAspectRatio="xMidYMid meet">

<g transform="translate(0.000000,512.000000) scale(0.100000,-0.100000)"
fill="#000000" stroke="none">
<path d="M2320 4010 c-12 -8 -16 -43 -18 -195 l-3 -185 -64 0 c-55 0 -66 -3
-79 -22 -14 -20 -16 -120 -16 -883 0 -672 3 -865 13 -885 11 -22 19 -25 80
-28 l67 -3 0 -134 c0 -122 2 -137 20 -155 25 -25 45 -25 70 0 18 18 20 33 20
155 l0 135 64 0 c56 0 67 3 80 22 14 20 16 121 16 888 0 767 -2 868 -16 888
-13 19 -24 22 -80 22 l-64 0 0 176 c0 102 -4 183 -10 195 -11 20 -54 26 -80 9z
m140 -1290 l0 -810 -105 0 -105 0 0 810 0 810 105 0 105 0 0 -810z"/>
<path d="M3090 3792 c-32 -10 -40 -35 -40 -134 l0 -98 -64 0 c-102 0 -96 28
-96 -460 0 -488 -6 -460 96 -460 l64 0 0 -78 c0 -88 12 -114 54 -114 42 -1 51
16 55 107 l3 85 63 0 c101 0 95 -27 95 460 0 488 6 460 -96 460 l-64 0 0 89
c0 123 -18 159 -70 143z m120 -692 l0 -360 -105 0 -105 0 0 360 0 360 105 0
105 0 0 -360z"/>
</g>
</svg>
