<?xml version="1.0" standalone="no"?>
<!DOCTYPE svg PUBLIC "-//W3C//DTD SVG 20010904//EN"
 "http://www.w3.org/TR/2001/REC-SVG-20010904/DTD/svg10.dtd">
<svg version="1.0" xmlns="http://www.w3.org/2000/svg"
 width="512.000000pt" height="512.000000pt" viewBox="0 0 512.000000 512.000000"
 preserveAspectRatio="xMidYMid meet">

<g transform="translate(0.000000,512.000000) scale(0.100000,-0.100000)"
fill="#000000" stroke="none">
<path d="M2383 3605 c-220 -41 -409 -140 -569 -299 -203 -204 -314 -468 -314
-751 0 -283 111 -547 314 -751 204 -203 468 -314 751 -314 283 0 547 111 751
314 132 133 211 264 273 458 17 53 41 196 41 246 l0 42 -50 0 c-50 0 -50 0
-50 -32 0 -55 -27 -199 -50 -268 -74 -223 -254 -434 -467 -547 -281 -149 -615
-149 -896 0 -471 250 -652 832 -404 1300 249 470 826 650 1297 406 103 -53
199 -132 336 -276 l116 -123 -171 0 -171 0 0 -50 0 -50 255 0 255 0 0 255 0
255 -50 0 -50 0 0 -166 0 -166 -147 150 c-191 194 -306 271 -493 331 -154 50
-354 64 -507 36z"/>
</g>
</svg>
